<?xml version="1.0" standalone="no"?>
<!DOCTYPE svg PUBLIC "-//W3C//DTD SVG 20010904//EN"
 "http://www.w3.org/TR/2001/REC-SVG-20010904/DTD/svg10.dtd">
<svg version="1.0" xmlns="http://www.w3.org/2000/svg"
 width="700.000000pt" height="700.000000pt" viewBox="0 0 700.000000 700.000000"
 preserveAspectRatio="xMidYMid meet">
<metadata>
Created by potrace 1.14, written by Peter Selinger 2001-2017
</metadata>
<g transform="translate(0.000000,700.000000) scale(0.100000,-0.100000)"
fill="#000000" stroke="none">
<path d="M3400 6985 c-72 -20 -155 -77 -202 -140 -124 -163 -89 -403 77 -527
125 -95 299 -99 432 -12 226 147 225 486 -1 631 -86 55 -208 74 -306 48z"/>
<path d="M2484 6844 c-140 -31 -227 -95 -285 -210 -130 -259 69 -559 360 -542
326 20 475 422 239 648 -80 76 -224 124 -314 104z"/>
<path d="M4378 6835 c-177 -47 -290 -189 -289 -365 0 -80 4 -97 35 -166 53
-116 182 -203 312 -212 344 -22 536 380 302 634 -89 97 -236 141 -360 109z"/>
<path d="M1590 6393 c-117 -23 -216 -102 -268 -213 -37 -79 -42 -202 -12 -283
25 -65 89 -150 139 -184 190 -128 454 -60 555 142 56 113 53 233 -7 348 -76
145 -244 224 -407 190z"/>
<path d="M5295 6400 c-321 -33 -455 -437 -217 -652 229 -207 588 -76 630 230
33 237 -172 446 -413 422z"/>
<path d="M932 5709 c-146 -18 -267 -118 -318 -264 -13 -36 -14 -49 -15 -110 0
-303 336 -483 587 -314 124 84 188 233 162 379 -4 25 -22 73 -38 107 -68 138
-222 220 -378 202z"/>
<path d="M5982 5709 c-316 -38 -449 -426 -220 -646 188 -181 497 -123 605 114
122 266 -95 566 -385 532z"/>
<path d="M1454 4849 c-2 -3 13 -68 32 -145 20 -76 38 -150 40 -164 3 -14 7
-32 10 -40 3 -8 8 -24 10 -35 2 -11 105 -427 230 -925 124 -498 227 -912 229
-921 2 -8 45 -181 95 -385 51 -203 93 -376 95 -384 2 -13 50 -15 365 -15 l364
0 28 100 c16 55 37 129 48 165 20 67 389 1363 396 1390 32 129 129 448 134
443 4 -5 27 -78 50 -163 57 -206 104 -374 191 -680 39 -140 79 -284 89 -320
10 -36 39 -139 65 -230 25 -91 59 -212 76 -270 32 -115 34 -125 80 -285 30
-105 37 -131 38 -147 1 -5 165 -8 366 -8 l364 0 10 38 c14 52 122 484 126 502
2 8 15 62 30 120 15 58 28 112 30 120 2 8 65 263 140 565 75 303 138 557 140
565 2 8 65 260 140 559 74 299 133 546 130 550 -4 3 -152 6 -331 6 l-325 0 -9
-35 c-5 -19 -16 -71 -25 -114 -9 -44 -17 -82 -19 -85 -2 -3 -7 -22 -10 -41 -3
-19 -24 -120 -47 -225 -22 -104 -43 -201 -45 -215 -3 -14 -14 -63 -24 -110
-11 -47 -51 -233 -90 -415 -39 -181 -77 -359 -86 -395 -8 -36 -16 -74 -18 -85
-21 -108 -101 -463 -104 -460 -2 2 -12 34 -22 72 -34 123 -92 338 -96 353 -2
8 -14 56 -28 105 -13 50 -34 126 -46 170 -12 44 -28 103 -35 130 -7 28 -29
109 -48 180 -20 72 -45 166 -57 210 -99 370 -122 456 -135 500 -8 28 -37 138
-66 245 -28 107 -55 200 -59 205 -5 6 -131 10 -345 10 -287 0 -338 -2 -345
-15 -4 -8 -19 -60 -33 -115 -14 -55 -71 -278 -127 -495 -56 -217 -103 -402
-105 -410 -1 -9 -29 -114 -60 -235 -31 -121 -58 -227 -60 -235 -2 -8 -29 -114
-60 -235 -31 -121 -68 -264 -81 -319 -31 -128 -39 -140 -49 -85 -4 24 -9 49
-10 54 -5 16 -56 238 -60 255 -2 8 -39 173 -84 365 -113 494 -132 578 -136
595 -2 8 -31 134 -65 280 -34 146 -67 292 -75 325 -7 33 -23 105 -35 160 -13
55 -25 102 -27 105 -6 7 -654 6 -659 -1z"/>
<path d="M480 4838 c-180 -27 -320 -183 -323 -358 -2 -83 5 -114 36 -181 111
-232 421 -284 606 -101 184 182 130 496 -104 607 -30 14 -74 28 -98 31 -23 3
-46 6 -52 8 -5 1 -35 -1 -65 -6z"/>
<path d="M6392 4834 c-187 -38 -312 -205 -300 -400 9 -131 95 -256 213 -310
68 -31 94 -37 170 -36 333 4 497 420 255 646 -98 91 -213 125 -338 100z"/>
<path d="M310 3872 c-180 -31 -317 -207 -306 -392 7 -100 24 -144 83 -217 67
-83 161 -132 268 -138 296 -19 492 284 358 552 -28 55 -102 132 -153 158 -63
33 -178 50 -250 37z"/>
<path d="M6550 3872 c-48 -8 -126 -44 -168 -79 -154 -126 -184 -356 -67 -515
180 -245 566 -187 661 100 92 276 -136 541 -426 494z"/>
<path d="M450 2904 c-296 -61 -397 -443 -170 -648 253 -228 656 -28 627 312
-20 230 -227 382 -457 336z"/>
<path d="M6388 2904 c-118 -27 -210 -100 -264 -210 -26 -53 -29 -68 -28 -159
0 -89 3 -106 29 -159 120 -246 443 -292 624 -90 241 271 -8 698 -361 618z"/>
<path d="M888 2034 c-191 -48 -314 -232 -285 -424 18 -122 103 -236 215 -288
50 -24 69 -27 157 -27 83 0 108 4 149 23 226 104 296 365 155 572 -79 115
-253 180 -391 144z"/>
<path d="M5940 2035 c-140 -36 -256 -151 -285 -285 -38 -171 53 -354 212 -427
143 -66 312 -35 424 77 123 123 145 310 56 463 -79 134 -258 210 -407 172z"/>
<path d="M1612 1349 c-160 -21 -295 -156 -319 -319 -39 -257 198 -480 450
-423 139 31 234 117 282 252 23 68 25 138 3 215 -52 189 -221 300 -416 275z"/>
<path d="M5272 1348 c-208 -32 -355 -249 -307 -453 57 -246 322 -369 548 -253
57 28 129 105 160 168 133 276 -96 585 -401 538z"/>
<path d="M2412 890 c-179 -64 -286 -253 -245 -433 48 -214 245 -340 456 -291
78 19 131 49 189 111 72 77 102 160 100 270 -3 142 -88 267 -227 333 -68 32
-197 37 -273 10z"/>
<path d="M4385 903 c-82 -18 -169 -73 -219 -139 -117 -154 -103 -361 34 -500
121 -123 306 -144 461 -52 231 137 240 480 17 631 -82 56 -203 80 -293 60z"/>
<path d="M3375 735 c-148 -52 -242 -178 -250 -335 -18 -333 369 -522 624 -304
106 91 152 241 115 379 -19 77 -45 119 -111 182 -99 95 -243 125 -378 78z"/>
</g>
</svg>
