<svg width="1302" height="150" viewBox="0 0 1302 150" fill="none" xmlns="http://www.w3.org/2000/svg">
<g clip-path="url(#clip0_499_380)">
<path d="M0.760742 2.95557H22.9346L50.7557 117.748L80.1199 2.95557H102.877L133.61 117.748L159.67 2.95557H182.042L146.444 146.188H120.966L91.3981 36.143L61.6416 146.188H36.5501L0.760742 2.95557Z" fill="white"/>
<path d="M198.121 2.95557H219.708V62.7253H290.315V2.95557H311.902V146.188H290.315V83.3274H219.708V146.188H198.121V2.95557Z" fill="white"/>
<path d="M327.984 74.6819C327.984 31.4029 356.768 0.0771484 396.253 0.0771484C435.738 0.0771484 464.526 31.4029 464.526 74.6819C464.526 117.751 435.738 149.074 396.253 149.074C356.768 149.074 327.984 117.751 327.984 74.6819ZM441.765 74.6819C441.765 43.1501 423.092 20.6862 396.253 20.6862C369.998 20.6862 350.933 43.1501 350.933 74.6819C350.933 106.214 369.998 128.468 396.253 128.468C423.092 128.468 441.765 106.214 441.765 74.6819Z" fill="white"/>
<path d="M480.608 2.95557H502.195V125.579H571.048V146.188H480.608V2.95557Z" fill="white"/>
<path d="M587.13 2.95557H681.262V22.9532H608.714V63.7591H667.455V83.7465H608.714V126.194H681.655V146.188H587.13L587.13 2.95557Z" fill="white"/>
<path d="M1119.57 0.0805664H1173.25C1202.23 0.0805664 1221.68 16.7773 1221.68 44.3935C1221.68 72.2122 1202.23 88.9056 1173.25 88.9056H1141.16V143.313H1119.57V0.0805664ZM1171.89 68.9148C1189.4 68.9148 1198.92 60.0563 1198.92 44.3935C1198.92 28.7306 1189.4 20.0748 1171.89 20.0748H1141.16V68.9148L1171.89 68.9148Z" fill="white"/>
<path d="M1240.23 7.1495H1229.72V0.0771484H1258V7.1495H1247.55V36.2186H1240.23V7.1495Z" fill="white"/>
<path d="M1263.9 0.0771484H1274.11L1282.7 20.2053L1291.5 0.0771484H1301.76V36.2186H1294.44V9.43711L1286.3 28.6276H1279.36L1271.21 9.43711V36.2186H1263.9V0.0771484Z" fill="white"/>
<path d="M1001.38 0.0805664H1055.06C1084.04 0.0805664 1103.49 16.7773 1103.49 44.3935C1103.49 72.2122 1084.04 88.9056 1055.06 88.9056H1022.97V143.313H1001.38V0.0805664ZM1053.7 68.9148C1071.2 68.9148 1080.73 60.0563 1080.73 44.3935C1080.73 28.7306 1071.2 20.0748 1053.7 20.0748H1022.97V68.9148L1053.7 68.9148Z" fill="white"/>
<path d="M749.678 105.386C749.678 99.4127 750.845 92.8178 752.596 87.2499L772.822 93.2265C771.655 96.9396 771.266 100.855 771.266 104.355C771.266 120.224 785.072 129.705 805.499 129.705C824.363 129.705 836.034 121.049 836.034 107.237C836.034 95.0814 826.114 89.1082 813.471 86.2229L795.579 82.5133C764.847 76.1245 753.76 62.1069 753.76 41.2918C753.76 16.7705 773.989 0.0771484 801.609 0.0771484C835.839 0.0771484 853.734 17.8009 855.679 48.5084L834.286 51.5964C831.758 31.4029 822.223 19.4497 801.022 19.4497C786.045 19.4497 775.35 27.075 775.35 40.2648C775.35 53.4546 787.021 59.0191 800.442 61.9009L818.333 65.6139C847.12 71.3811 857.624 85.3952 857.624 105.386C857.624 132.796 834.866 149.074 804.912 149.074C769.321 149.074 749.678 130.529 749.678 105.386Z" fill="white"/>
<path d="M873.706 90.5475V2.95898H895.29V89.3109C895.29 114.657 906.964 128.468 929.332 128.468C951.506 128.468 963.563 114.657 963.563 89.3109V2.95898H985.153V90.5474C985.153 128.052 965.508 149.077 929.332 149.077C893.543 149.077 873.706 128.053 873.706 90.5475Z" fill="white"/>
</g>
<defs>
<clipPath id="clip0_499_380">
<rect width="1301" height="149" fill="white" transform="translate(0.760742 0.0771484)"/>
</clipPath>
</defs>
</svg>
